<svg width="18" height="18" viewBox="0 0 18 18" fill="none" xmlns="http://www.w3.org/2000/svg">
<g clip-path="url(#clip0_3001_292)">
<path d="M18 9C18 11.3746 17.0805 13.5343 15.578 15.1426C13.9353 16.9009 11.5961 17.8431 9.00004 17.8431C4.02948 17.8431 0.172241 13.9706 0.172241 9C0.172241 6.40413 1.09903 4.06494 2.85712 2.42234C4.46545 0.919723 6.62535 0 9.00004 0C13.9706 0 18 4.02943 18 9Z" fill="#FFD05B"/>
<path d="M9.00008 16.2581C13.0086 16.2581 16.2582 13.0085 16.2582 9.00002C16.2582 4.9915 13.0086 1.74194 9.00008 1.74194C4.99156 1.74194 1.742 4.9915 1.742 9.00002C1.742 13.0085 4.99156 16.2581 9.00008 16.2581Z" fill="#FFEAA5"/>
<path d="M15.0967 9.00002C15.0967 10.5532 14.5159 11.9708 13.5597 13.0473C12.4429 14.3046 10.8139 14.9378 8.99998 14.9378C5.63282 14.9378 3.10431 12.3672 3.10431 9.00006C3.10431 7.18722 3.69441 5.55921 4.95033 4.44244C6.02716 3.48488 7.44565 2.90326 8.99998 2.90326C12.3671 2.90326 15.0967 5.63286 15.0967 9.00002Z" fill="#FC9B40"/>
<path d="M9.43548 17.5645C4.46491 17.5645 0.435481 13.5351 0.435481 8.56451C0.435481 6.19002 1.35468 4.03062 2.85711 2.42236C1.09877 4.06497 0 6.40391 0 8.99999C0 13.9706 4.02943 18 9 18C11.5961 18 13.9353 16.9009 15.5779 15.1426C13.9697 16.645 11.81 17.5645 9.43548 17.5645Z" fill="#FFC244"/>
<path d="M9.5062 14.5904C6.13904 14.5904 3.40944 11.8608 3.40944 8.4936C3.40944 6.93899 3.99233 5.51935 4.95016 4.44244C3.69456 5.55915 2.90302 7.18751 2.90302 9.00003C2.90302 12.3672 5.63265 15.0968 8.99978 15.0968C10.8123 15.0968 12.4427 14.3029 13.5595 13.0473C12.4826 14.0052 11.0608 14.5904 9.5062 14.5904Z" fill="#FC9B40"/>
</g>
<defs>
<clipPath id="clip0_3001_292">
<rect width="18" height="18" fill="white"/>
</clipPath>
</defs>
</svg>
