<svg width="64" height="65" viewBox="0 0 64 65" fill="none" xmlns="http://www.w3.org/2000/svg">
<circle cx="32" cy="32.5" r="30" fill="#71C658" stroke="#66AC52" stroke-width="4"/>
<path d="M33.1785 22.9882C32.866 22.6756 32.442 22.5 32 22.5C31.558 22.5 31.1341 22.6756 30.8215 22.9882L27.4882 26.3215C26.8373 26.9724 26.8373 28.0276 27.4882 28.6785C28.139 29.3294 29.1943 29.3294 29.8452 28.6785L30.3333 28.1904V40.8333C30.3333 41.7538 31.0795 42.5 32 42.5C32.9205 42.5 33.6667 41.7538 33.6667 40.8333V28.1904L34.1548 28.6785C34.8057 29.3294 35.861 29.3294 36.5118 28.6785C37.1627 28.0276 37.1627 26.9724 36.5118 26.3215L33.1785 22.9882Z" fill="white"/>
</svg>
