<svg width="64" height="65" viewBox="0 0 64 65" fill="none" xmlns="http://www.w3.org/2000/svg">
<circle cx="32" cy="32.5" r="30" fill="#DD385F" stroke="#BC3353" stroke-width="4"/>
<path d="M30.8215 42.0118C31.134 42.3244 31.558 42.5 32 42.5C32.442 42.5 32.8659 42.3244 33.1785 42.0118L36.5118 38.6785C37.1627 38.0276 37.1627 36.9724 36.5118 36.3215C35.861 35.6706 34.8057 35.6706 34.1548 36.3215L33.6667 36.8096L33.6667 24.1667C33.6667 23.2462 32.9205 22.5 32 22.5C31.0795 22.5 30.3333 23.2462 30.3333 24.1667L30.3333 36.8096L29.8452 36.3215C29.1943 35.6706 28.139 35.6706 27.4882 36.3215C26.8373 36.9724 26.8373 38.0276 27.4882 38.6785L30.8215 42.0118Z" fill="white"/>
</svg>
